<?xml version="1.0" encoding="UTF-8" standalone="no"?>
<!-- Created with Inkscape (http://www.inkscape.org/) -->

<svg
   xmlns:dc="http://purl.org/dc/elements/1.1/"
   xmlns:cc="http://creativecommons.org/ns#"
   xmlns:rdf="http://www.w3.org/1999/02/22-rdf-syntax-ns#"
   xmlns:svg="http://www.w3.org/2000/svg"
   xmlns="http://www.w3.org/2000/svg"
   xmlns:sodipodi="http://sodipodi.sourceforge.net/DTD/sodipodi-0.dtd"
   xmlns:inkscape="http://www.inkscape.org/namespaces/inkscape"
   width="90mm"
   height="90mm"
   viewBox="0 0 90 90"
   version="1.1"
   id="svg8"
   inkscape:version="0.92.3 (2405546, 2018-03-11)"
   sodipodi:docname="logo.svg">
  <defs
     id="defs2" />
  <sodipodi:namedview
     id="base"
     pagecolor="#ffffff"
     bordercolor="#666666"
     borderopacity="1.0"
     inkscape:pageopacity="1"
     inkscape:pageshadow="2"
     inkscape:zoom="0.7328125"
     inkscape:cx="386.67913"
     inkscape:cy="66.940946"
     inkscape:document-units="mm"
     inkscape:current-layer="layer1"
     showgrid="false"
     inkscape:window-width="1311"
     inkscape:window-height="704"
     inkscape:window-x="55"
     inkscape:window-y="27"
     inkscape:window-maximized="1" />
  <metadata
     id="metadata5">
    <rdf:RDF>
      <cc:Work
         rdf:about="">
        <dc:format>image/svg+xml</dc:format>
        <dc:type
           rdf:resource="http://purl.org/dc/dcmitype/StillImage" />
        <dc:title></dc:title>
      </cc:Work>
    </rdf:RDF>
  </metadata>
  <g
     inkscape:label="Layer 1"
     inkscape:groupmode="layer"
     id="layer1"
     transform="translate(0,-207)">
    <rect
       style="fill:#ffffff;fill-opacity:1;stroke:#ffffff;stroke-width:0.75932366"
       id="rect5203"
       width="89.240677"
       height="89.240677"
       x="0.37966183"
       y="207.37967"
       rx="0"
       ry="0" />
    <path
       style="fill:none;stroke:#000000;stroke-width:0.32827565px;stroke-linecap:butt;stroke-linejoin:miter;stroke-opacity:1"
       d="m 30.175,207 v 90"
       id="path20"
       inkscape:connector-curvature="0" />
    <path
       style="fill:none;stroke:#000000;stroke-width:0.32827565px;stroke-linecap:butt;stroke-linejoin:miter;stroke-opacity:1"
       d="m 60.164138,207 v 90"
       id="path20-5"
       inkscape:connector-curvature="0" />
    <path
       style="fill:none;stroke:#000000;stroke-width:0.35303992px;stroke-linecap:butt;stroke-linejoin:miter;stroke-opacity:1"
       d="M 0,266.88023 H 90"
       id="path90"
       inkscape:connector-curvature="0" />
    <path
       style="fill:none;stroke:#000000;stroke-width:0.35303992px;stroke-linecap:butt;stroke-linejoin:miter;stroke-opacity:1"
       d="M 0,236.82348 H 90.000002"
       id="path90-6"
       inkscape:connector-curvature="0" />
    <g
       aria-label="X"
       style="font-style:normal;font-weight:normal;font-size:7.05555534px;line-height:1.25;font-family:sans-serif;letter-spacing:0px;word-spacing:0px;fill:#000000;fill-opacity:1;stroke:none;stroke-width:0.26458332"
       id="text109"
       transform="matrix(1.0051935,0,0,0.9423654,-0.59963988,14.21495)">
      <path
         d="m 53.308587,260.70993 q -0.677333,-1.69333 -1.411111,-2.85044 -0.705556,-1.15711 -1.524,-2.032 -0.818445,-0.90311 -1.778,-1.66511 -0.931333,-0.762 -2.060222,-1.69334 v 0.0282 q 0.987777,0.79022 1.947333,1.69333 0.987778,0.87489 1.834444,1.89089 0.874889,0.98778 1.552223,2.11666 0.677333,1.10067 1.072444,2.34245 -0.366889,-0.254 -0.733778,-0.70556 -0.338666,-0.47977 -0.677333,-0.98777 l -0.677333,-1.04423 q -0.338667,-0.53622 -0.677334,-0.90311 l 0.282222,-0.254 q -1.044222,-0.93133 -2.031999,-1.89089 -0.987778,-0.98777 -2.060223,-1.89088 l -0.112889,0.22577 q 0.818445,0.67734 1.580445,1.41111 0.790222,0.70556 1.524,1.49578 -0.733778,-0.762 -1.552222,-1.43933 -0.790223,-0.70556 -1.608667,-1.35467 -0.959555,1.778 -1.919111,3.52778 -0.931333,1.74978 -1.862667,3.52778 -0.08467,0.19755 -0.225777,0.62089 -0.141112,0.45155 -0.310445,0.90311 -0.169333,0.45155 -0.366889,0.79022 -0.197555,0.36689 -0.451555,0.36689 l -0.197556,-0.0847 q 0.310445,-0.73378 0.536222,-1.49578 0.225778,-0.73377 0.564445,-1.43933 -0.366889,0.70556 -0.649111,1.41111 -0.282222,0.73378 -0.620889,1.43933 -0.141111,-0.28222 -0.423333,-0.53622 -0.282223,-0.22578 -0.620889,-0.22578 -0.05644,0 -0.395111,0.0564 -0.310445,0.0564 -0.395112,0.19755 l -0.141111,-0.0847 q 0.254,-0.14111 0.451556,-0.53622 0.225778,-0.36689 0.395111,-0.762 0.169333,-0.39512 0.282222,-0.70556 0.112889,-0.28222 0.169334,-0.31044 0,-0.0282 -0.02822,-0.0564 -0.05644,-0.0282 -0.05644,-0.0847 v -0.0282 q -0.310445,0.59267 -0.649111,1.15711 -0.310445,0.53623 -0.677334,1.07245 -0.05644,-0.28222 -0.05644,-0.42334 0,-0.45155 0.225778,-0.84666 0.225778,-0.39511 0.366889,-0.81845 0.310444,-0.47977 0.536222,-1.04422 0.254,-0.56444 0.479778,-1.10067 l 0.282222,0.16934 q 0.620889,-1.74978 1.608666,-3.49956 0.987778,-1.778 1.749778,-3.47133 l -0.225778,-0.14111 q -0.762,1.63689 -1.636888,3.44311 -0.874889,1.80622 -1.693334,3.41489 0.790223,-1.63689 1.524,-3.27378 0.733778,-1.63689 1.467556,-3.302 -0.733778,-0.47978 -1.552222,-0.98778 -0.790223,-0.53622 -1.580445,-1.07244 -0.762,-0.56445 -1.495778,-1.15711 -0.705555,-0.59267 -1.298222,-1.27 -0.479777,-0.56445 -0.931333,-1.10067 -0.451556,-0.56444 -0.959556,-1.07244 0.197556,-0.14111 0.310445,-0.33867 0.112889,-0.22578 0.366889,-0.254 0.254,0.11289 0.479778,0.31044 0.225777,0.16934 0.395111,0.36689 l 0.169333,-0.254 q -0.225778,-0.31044 -0.395111,-0.70555 -0.169333,-0.39511 -0.169333,-0.79022 0,-0.22578 0.112888,-0.39512 0.112889,-0.19755 0.366889,-0.19755 0.169334,0 0.733778,0.36689 0.564444,0.36689 1.326444,0.93133 0.762,0.56445 1.636889,1.24178 0.903111,0.67733 1.693334,1.29822 0.818444,0.62089 1.439333,1.12889 0.649111,0.47978 0.903111,0.64911 0.592667,-1.21355 1.016,-1.91911 0.451555,-0.73378 0.874889,-1.29822 0.423333,-0.59267 0.903111,-1.18534 0.479778,-0.62088 1.128889,-1.60866 0.141111,0.22578 0.423333,0.31044 0.282222,0.0565 0.282222,0.33867 0,0.14111 -0.197555,0.45155 -0.169334,0.28223 -0.225778,0.36689 l 0.254,0.16934 q 0.310444,-0.28223 0.677333,-0.53623 0.395111,-0.254 0.818445,-0.254 0.508,0 0.508,0.508 0,0.47978 -0.451556,1.38289 -0.451555,0.87489 -1.072444,1.89089 -0.592667,1.016 -1.185334,1.97556 -0.564444,0.95955 -0.818444,1.58044 0.395111,0.31045 1.100667,0.98778 0.733777,0.64911 1.580444,1.524 0.846667,0.84667 1.721556,1.80622 0.874888,0.95956 1.580444,1.89089 0.705555,0.90311 1.157111,1.69333 0.451556,0.762 0.451556,1.21356 0,0.254 -0.282223,0.31044 -0.395111,-0.73377 -0.846666,-1.41111 -0.423334,-0.62089 -0.874889,-1.21355 0.423333,0.59266 0.790222,1.21355 0.395111,0.67734 0.762,1.41111 l -0.451556,0.254 0.366889,0.59267 q 0,0.31044 -0.08467,0.62089 -0.08467,0.28222 -0.479778,0.28222 -0.254,0 -0.479778,-0.11289 -0.197555,-0.11289 -0.423333,-0.254 z m -4.769556,-9.42622 q 0.762,0.79022 1.524,1.55222 0.762,0.762 1.495778,1.58045 -0.620889,-1.04422 -1.439333,-1.69334 -0.790222,-0.67733 -1.580445,-1.43933 z m -5.813777,7.22489 q 0.169333,-0.31045 0.395111,-0.762 0.282222,-0.53622 0.564444,-1.07245 0.282223,-0.56444 0.536223,-1.04422 0.197555,-0.39511 0.338666,-0.62089 -1.044222,1.72156 -1.834444,3.49956 z m 0.592666,-5.81378 q -0.395111,0.64911 -0.733777,1.32645 -0.310445,0.67733 -0.620889,1.38288 z m -0.395111,-2.25778 -0.08467,0.16934 0.451555,0.31044 0.08467,-0.22578 z m -0.225777,8.128 v 0.0282 z"
         style="font-style:normal;font-variant:normal;font-weight:normal;font-stretch:normal;font-size:28.22222137px;line-height:2.25;font-family:'Finger Paint';-inkscape-font-specification:'Finger Paint, Normal';font-variant-ligatures:normal;font-variant-caps:normal;font-variant-numeric:normal;font-feature-settings:normal;text-align:start;writing-mode:lr-tb;text-anchor:start;fill:#ff0000;stroke-width:0.26458332"
         id="path4638"
         inkscape:connector-curvature="0" />
    </g>
    <g
       transform="matrix(1.0051935,0,0,0.9423654,-30.59964,44.214951)"
       aria-label="X"
       style="font-style:normal;font-weight:normal;font-size:7.05555534px;line-height:1.25;font-family:sans-serif;letter-spacing:0px;word-spacing:0px;fill:#000000;fill-opacity:1;stroke:none;stroke-width:0.26458332"
       id="text109-8">
      <path
         inkscape:connector-curvature="0"
         d="m 53.308587,260.70993 q -0.677333,-1.69333 -1.411111,-2.85044 -0.705556,-1.15711 -1.524,-2.032 -0.818445,-0.90311 -1.778,-1.66511 -0.931333,-0.762 -2.060222,-1.69334 v 0.0282 q 0.987777,0.79022 1.947333,1.69333 0.987778,0.87489 1.834444,1.89089 0.874889,0.98778 1.552223,2.11666 0.677333,1.10067 1.072444,2.34245 -0.366889,-0.254 -0.733778,-0.70556 -0.338666,-0.47977 -0.677333,-0.98777 l -0.677333,-1.04423 q -0.338667,-0.53622 -0.677334,-0.90311 l 0.282222,-0.254 q -1.044222,-0.93133 -2.031999,-1.89089 -0.987778,-0.98777 -2.060223,-1.89088 l -0.112889,0.22577 q 0.818445,0.67734 1.580445,1.41111 0.790222,0.70556 1.524,1.49578 -0.733778,-0.762 -1.552222,-1.43933 -0.790223,-0.70556 -1.608667,-1.35467 -0.959555,1.778 -1.919111,3.52778 -0.931333,1.74978 -1.862667,3.52778 -0.08467,0.19755 -0.225777,0.62089 -0.141112,0.45155 -0.310445,0.90311 -0.169333,0.45155 -0.366889,0.79022 -0.197555,0.36689 -0.451555,0.36689 l -0.197556,-0.0847 q 0.310445,-0.73378 0.536222,-1.49578 0.225778,-0.73377 0.564445,-1.43933 -0.366889,0.70556 -0.649111,1.41111 -0.282222,0.73378 -0.620889,1.43933 -0.141111,-0.28222 -0.423333,-0.53622 -0.282223,-0.22578 -0.620889,-0.22578 -0.05644,0 -0.395111,0.0564 -0.310445,0.0564 -0.395112,0.19755 l -0.141111,-0.0847 q 0.254,-0.14111 0.451556,-0.53622 0.225778,-0.36689 0.395111,-0.762 0.169333,-0.39512 0.282222,-0.70556 0.112889,-0.28222 0.169334,-0.31044 0,-0.0282 -0.02822,-0.0564 -0.05644,-0.0282 -0.05644,-0.0847 v -0.0282 q -0.310445,0.59267 -0.649111,1.15711 -0.310445,0.53623 -0.677334,1.07245 -0.05644,-0.28222 -0.05644,-0.42334 0,-0.45155 0.225778,-0.84666 0.225778,-0.39511 0.366889,-0.81845 0.310444,-0.47977 0.536222,-1.04422 0.254,-0.56444 0.479778,-1.10067 l 0.282222,0.16934 q 0.620889,-1.74978 1.608666,-3.49956 0.987778,-1.778 1.749778,-3.47133 l -0.225778,-0.14111 q -0.762,1.63689 -1.636888,3.44311 -0.874889,1.80622 -1.693334,3.41489 0.790223,-1.63689 1.524,-3.27378 0.733778,-1.63689 1.467556,-3.302 -0.733778,-0.47978 -1.552222,-0.98778 -0.790223,-0.53622 -1.580445,-1.07244 -0.762,-0.56445 -1.495778,-1.15711 -0.705555,-0.59267 -1.298222,-1.27 -0.479777,-0.56445 -0.931333,-1.10067 -0.451556,-0.56444 -0.959556,-1.07244 0.197556,-0.14111 0.310445,-0.33867 0.112889,-0.22578 0.366889,-0.254 0.254,0.11289 0.479778,0.31044 0.225777,0.16934 0.395111,0.36689 l 0.169333,-0.254 q -0.225778,-0.31044 -0.395111,-0.70555 -0.169333,-0.39511 -0.169333,-0.79022 0,-0.22578 0.112888,-0.39512 0.112889,-0.19755 0.366889,-0.19755 0.169334,0 0.733778,0.36689 0.564444,0.36689 1.326444,0.93133 0.762,0.56445 1.636889,1.24178 0.903111,0.67733 1.693334,1.29822 0.818444,0.62089 1.439333,1.12889 0.649111,0.47978 0.903111,0.64911 0.592667,-1.21355 1.016,-1.91911 0.451555,-0.73378 0.874889,-1.29822 0.423333,-0.59267 0.903111,-1.18534 0.479778,-0.62088 1.128889,-1.60866 0.141111,0.22578 0.423333,0.31044 0.282222,0.0565 0.282222,0.33867 0,0.14111 -0.197555,0.45155 -0.169334,0.28223 -0.225778,0.36689 l 0.254,0.16934 q 0.310444,-0.28223 0.677333,-0.53623 0.395111,-0.254 0.818445,-0.254 0.508,0 0.508,0.508 0,0.47978 -0.451556,1.38289 -0.451555,0.87489 -1.072444,1.89089 -0.592667,1.016 -1.185334,1.97556 -0.564444,0.95955 -0.818444,1.58044 0.395111,0.31045 1.100667,0.98778 0.733777,0.64911 1.580444,1.524 0.846667,0.84667 1.721556,1.80622 0.874888,0.95956 1.580444,1.89089 0.705555,0.90311 1.157111,1.69333 0.451556,0.762 0.451556,1.21356 0,0.254 -0.282223,0.31044 -0.395111,-0.73377 -0.846666,-1.41111 -0.423334,-0.62089 -0.874889,-1.21355 0.423333,0.59266 0.790222,1.21355 0.395111,0.67734 0.762,1.41111 l -0.451556,0.254 0.366889,0.59267 q 0,0.31044 -0.08467,0.62089 -0.08467,0.28222 -0.479778,0.28222 -0.254,0 -0.479778,-0.11289 -0.197555,-0.11289 -0.423333,-0.254 z m -4.769556,-9.42622 q 0.762,0.79022 1.524,1.55222 0.762,0.762 1.495778,1.58045 -0.620889,-1.04422 -1.439333,-1.69334 -0.790222,-0.67733 -1.580445,-1.43933 z m -5.813777,7.22489 q 0.169333,-0.31045 0.395111,-0.762 0.282222,-0.53622 0.564444,-1.07245 0.282223,-0.56444 0.536223,-1.04422 0.197555,-0.39511 0.338666,-0.62089 -1.044222,1.72156 -1.834444,3.49956 z m 0.592666,-5.81378 q -0.395111,0.64911 -0.733777,1.32645 -0.310445,0.67733 -0.620889,1.38288 z m -0.395111,-2.25778 -0.08467,0.16934 0.451555,0.31044 0.08467,-0.22578 z m -0.225777,8.128 v 0.0282 z"
         style="font-style:normal;font-variant:normal;font-weight:normal;font-stretch:normal;font-size:28.22222137px;line-height:2.25;font-family:'Finger Paint';-inkscape-font-specification:'Finger Paint, Normal';font-variant-ligatures:normal;font-variant-caps:normal;font-variant-numeric:normal;font-feature-settings:normal;text-align:start;writing-mode:lr-tb;text-anchor:start;fill:#ff0000;stroke-width:0.26458332"
         id="path4638-0" />
    </g>
    <g
       transform="translate(-78.436818,29.098699)"
       aria-label="X"
       style="font-style:normal;font-weight:normal;font-size:7.05555534px;line-height:1.25;font-family:sans-serif;letter-spacing:0px;word-spacing:0px;fill:#000000;fill-opacity:1;stroke:none;stroke-width:0.26458332"
       id="text109-8-4">
      <path
         inkscape:connector-curvature="0"
         d="m 53.308587,260.70993 q -0.677333,-1.69333 -1.411111,-2.85044 -0.705556,-1.15711 -1.524,-2.032 -0.818445,-0.90311 -1.778,-1.66511 -0.931333,-0.762 -2.060222,-1.69334 v 0.0282 q 0.987777,0.79022 1.947333,1.69333 0.987778,0.87489 1.834444,1.89089 0.874889,0.98778 1.552223,2.11666 0.677333,1.10067 1.072444,2.34245 -0.366889,-0.254 -0.733778,-0.70556 -0.338666,-0.47977 -0.677333,-0.98777 l -0.677333,-1.04423 q -0.338667,-0.53622 -0.677334,-0.90311 l 0.282222,-0.254 q -1.044222,-0.93133 -2.031999,-1.89089 -0.987778,-0.98777 -2.060223,-1.89088 l -0.112889,0.22577 q 0.818445,0.67734 1.580445,1.41111 0.790222,0.70556 1.524,1.49578 -0.733778,-0.762 -1.552222,-1.43933 -0.790223,-0.70556 -1.608667,-1.35467 -0.959555,1.778 -1.919111,3.52778 -0.931333,1.74978 -1.862667,3.52778 -0.08467,0.19755 -0.225777,0.62089 -0.141112,0.45155 -0.310445,0.90311 -0.169333,0.45155 -0.366889,0.79022 -0.197555,0.36689 -0.451555,0.36689 l -0.197556,-0.0847 q 0.310445,-0.73378 0.536222,-1.49578 0.225778,-0.73377 0.564445,-1.43933 -0.366889,0.70556 -0.649111,1.41111 -0.282222,0.73378 -0.620889,1.43933 -0.141111,-0.28222 -0.423333,-0.53622 -0.282223,-0.22578 -0.620889,-0.22578 -0.05644,0 -0.395111,0.0564 -0.310445,0.0564 -0.395112,0.19755 l -0.141111,-0.0847 q 0.254,-0.14111 0.451556,-0.53622 0.225778,-0.36689 0.395111,-0.762 0.169333,-0.39512 0.282222,-0.70556 0.112889,-0.28222 0.169334,-0.31044 0,-0.0282 -0.02822,-0.0564 -0.05644,-0.0282 -0.05644,-0.0847 v -0.0282 q -0.310445,0.59267 -0.649111,1.15711 -0.310445,0.53623 -0.677334,1.07245 -0.05644,-0.28222 -0.05644,-0.42334 0,-0.45155 0.225778,-0.84666 0.225778,-0.39511 0.366889,-0.81845 0.310444,-0.47977 0.536222,-1.04422 0.254,-0.56444 0.479778,-1.10067 l 0.282222,0.16934 q 0.620889,-1.74978 1.608666,-3.49956 0.987778,-1.778 1.749778,-3.47133 l -0.225778,-0.14111 q -0.762,1.63689 -1.636888,3.44311 -0.874889,1.80622 -1.693334,3.41489 0.790223,-1.63689 1.524,-3.27378 0.733778,-1.63689 1.467556,-3.302 -0.733778,-0.47978 -1.552222,-0.98778 -0.790223,-0.53622 -1.580445,-1.07244 -0.762,-0.56445 -1.495778,-1.15711 -0.705555,-0.59267 -1.298222,-1.27 -0.479777,-0.56445 -0.931333,-1.10067 -0.451556,-0.56444 -0.959556,-1.07244 0.197556,-0.14111 0.310445,-0.33867 0.112889,-0.22578 0.366889,-0.254 0.254,0.11289 0.479778,0.31044 0.225777,0.16934 0.395111,0.36689 l 0.169333,-0.254 q -0.225778,-0.31044 -0.395111,-0.70555 -0.169333,-0.39511 -0.169333,-0.79022 0,-0.22578 0.112888,-0.39512 0.112889,-0.19755 0.366889,-0.19755 0.169334,0 0.733778,0.36689 0.564444,0.36689 1.326444,0.93133 0.762,0.56445 1.636889,1.24178 0.903111,0.67733 1.693334,1.29822 0.818444,0.62089 1.439333,1.12889 0.649111,0.47978 0.903111,0.64911 0.592667,-1.21355 1.016,-1.91911 0.451555,-0.73378 0.874889,-1.29822 0.423333,-0.59267 0.903111,-1.18534 0.479778,-0.62088 1.128889,-1.60866 0.141111,0.22578 0.423333,0.31044 0.282222,0.0565 0.282222,0.33867 0,0.14111 -0.197555,0.45155 -0.169334,0.28223 -0.225778,0.36689 l 0.254,0.16934 q 0.310444,-0.28223 0.677333,-0.53623 0.395111,-0.254 0.818445,-0.254 0.508,0 0.508,0.508 0,0.47978 -0.451556,1.38289 -0.451555,0.87489 -1.072444,1.89089 -0.592667,1.016 -1.185334,1.97556 -0.564444,0.95955 -0.818444,1.58044 0.395111,0.31045 1.100667,0.98778 0.733777,0.64911 1.580444,1.524 0.846667,0.84667 1.721556,1.80622 0.874888,0.95956 1.580444,1.89089 0.705555,0.90311 1.157111,1.69333 0.451556,0.762 0.451556,1.21356 0,0.254 -0.282223,0.31044 -0.395111,-0.73377 -0.846666,-1.41111 -0.423334,-0.62089 -0.874889,-1.21355 0.423333,0.59266 0.790222,1.21355 0.395111,0.67734 0.762,1.41111 l -0.451556,0.254 0.366889,0.59267 q 0,0.31044 -0.08467,0.62089 -0.08467,0.28222 -0.479778,0.28222 -0.254,0 -0.479778,-0.11289 -0.197555,-0.11289 -0.423333,-0.254 z m -4.769556,-9.42622 q 0.762,0.79022 1.524,1.55222 0.762,0.762 1.495778,1.58045 -0.620889,-1.04422 -1.439333,-1.69334 -0.790222,-0.67733 -1.580445,-1.43933 z m -5.813777,7.22489 q 0.169333,-0.31045 0.395111,-0.762 0.282222,-0.53622 0.564444,-1.07245 0.282223,-0.56444 0.536223,-1.04422 0.197555,-0.39511 0.338666,-0.62089 -1.044222,1.72156 -1.834444,3.49956 z m 0.592666,-5.81378 q -0.395111,0.64911 -0.733777,1.32645 -0.310445,0.67733 -0.620889,1.38288 z m -0.395111,-2.25778 -0.08467,0.16934 0.451555,0.31044 0.08467,-0.22578 z m -0.225777,8.128 v 0.0282 z"
         style="font-style:normal;font-variant:normal;font-weight:normal;font-stretch:normal;font-size:28.22222137px;line-height:2.25;font-family:'Finger Paint';-inkscape-font-specification:'Finger Paint, Normal';font-variant-ligatures:normal;font-variant-caps:normal;font-variant-numeric:normal;font-feature-settings:normal;text-align:start;writing-mode:lr-tb;text-anchor:start;fill:#ff0000;stroke-width:0.26458332"
         id="path4638-0-0" />
    </g>
    <g
       transform="matrix(1.0051935,0,0,0.9423654,29.40036,-15.785049)"
       aria-label="X"
       style="font-style:normal;font-weight:normal;font-size:7.05555534px;line-height:1.25;font-family:sans-serif;letter-spacing:0px;word-spacing:0px;fill:#000000;fill-opacity:1;stroke:none;stroke-width:0.26458332"
       id="text109-8-4-9">
      <path
         inkscape:connector-curvature="0"
         d="m 53.308587,260.70993 q -0.677333,-1.69333 -1.411111,-2.85044 -0.705556,-1.15711 -1.524,-2.032 -0.818445,-0.90311 -1.778,-1.66511 -0.931333,-0.762 -2.060222,-1.69334 v 0.0282 q 0.987777,0.79022 1.947333,1.69333 0.987778,0.87489 1.834444,1.89089 0.874889,0.98778 1.552223,2.11666 0.677333,1.10067 1.072444,2.34245 -0.366889,-0.254 -0.733778,-0.70556 -0.338666,-0.47977 -0.677333,-0.98777 l -0.677333,-1.04423 q -0.338667,-0.53622 -0.677334,-0.90311 l 0.282222,-0.254 q -1.044222,-0.93133 -2.031999,-1.89089 -0.987778,-0.98777 -2.060223,-1.89088 l -0.112889,0.22577 q 0.818445,0.67734 1.580445,1.41111 0.790222,0.70556 1.524,1.49578 -0.733778,-0.762 -1.552222,-1.43933 -0.790223,-0.70556 -1.608667,-1.35467 -0.959555,1.778 -1.919111,3.52778 -0.931333,1.74978 -1.862667,3.52778 -0.08467,0.19755 -0.225777,0.62089 -0.141112,0.45155 -0.310445,0.90311 -0.169333,0.45155 -0.366889,0.79022 -0.197555,0.36689 -0.451555,0.36689 l -0.197556,-0.0847 q 0.310445,-0.73378 0.536222,-1.49578 0.225778,-0.73377 0.564445,-1.43933 -0.366889,0.70556 -0.649111,1.41111 -0.282222,0.73378 -0.620889,1.43933 -0.141111,-0.28222 -0.423333,-0.53622 -0.282223,-0.22578 -0.620889,-0.22578 -0.05644,0 -0.395111,0.0564 -0.310445,0.0564 -0.395112,0.19755 l -0.141111,-0.0847 q 0.254,-0.14111 0.451556,-0.53622 0.225778,-0.36689 0.395111,-0.762 0.169333,-0.39512 0.282222,-0.70556 0.112889,-0.28222 0.169334,-0.31044 0,-0.0282 -0.02822,-0.0564 -0.05644,-0.0282 -0.05644,-0.0847 v -0.0282 q -0.310445,0.59267 -0.649111,1.15711 -0.310445,0.53623 -0.677334,1.07245 -0.05644,-0.28222 -0.05644,-0.42334 0,-0.45155 0.225778,-0.84666 0.225778,-0.39511 0.366889,-0.81845 0.310444,-0.47977 0.536222,-1.04422 0.254,-0.56444 0.479778,-1.10067 l 0.282222,0.16934 q 0.620889,-1.74978 1.608666,-3.49956 0.987778,-1.778 1.749778,-3.47133 l -0.225778,-0.14111 q -0.762,1.63689 -1.636888,3.44311 -0.874889,1.80622 -1.693334,3.41489 0.790223,-1.63689 1.524,-3.27378 0.733778,-1.63689 1.467556,-3.302 -0.733778,-0.47978 -1.552222,-0.98778 -0.790223,-0.53622 -1.580445,-1.07244 -0.762,-0.56445 -1.495778,-1.15711 -0.705555,-0.59267 -1.298222,-1.27 -0.479777,-0.56445 -0.931333,-1.10067 -0.451556,-0.56444 -0.959556,-1.07244 0.197556,-0.14111 0.310445,-0.33867 0.112889,-0.22578 0.366889,-0.254 0.254,0.11289 0.479778,0.31044 0.225777,0.16934 0.395111,0.36689 l 0.169333,-0.254 q -0.225778,-0.31044 -0.395111,-0.70555 -0.169333,-0.39511 -0.169333,-0.79022 0,-0.22578 0.112888,-0.39512 0.112889,-0.19755 0.366889,-0.19755 0.169334,0 0.733778,0.36689 0.564444,0.36689 1.326444,0.93133 0.762,0.56445 1.636889,1.24178 0.903111,0.67733 1.693334,1.29822 0.818444,0.62089 1.439333,1.12889 0.649111,0.47978 0.903111,0.64911 0.592667,-1.21355 1.016,-1.91911 0.451555,-0.73378 0.874889,-1.29822 0.423333,-0.59267 0.903111,-1.18534 0.479778,-0.62088 1.128889,-1.60866 0.141111,0.22578 0.423333,0.31044 0.282222,0.0565 0.282222,0.33867 0,0.14111 -0.197555,0.45155 -0.169334,0.28223 -0.225778,0.36689 l 0.254,0.16934 q 0.310444,-0.28223 0.677333,-0.53623 0.395111,-0.254 0.818445,-0.254 0.508,0 0.508,0.508 0,0.47978 -0.451556,1.38289 -0.451555,0.87489 -1.072444,1.89089 -0.592667,1.016 -1.185334,1.97556 -0.564444,0.95955 -0.818444,1.58044 0.395111,0.31045 1.100667,0.98778 0.733777,0.64911 1.580444,1.524 0.846667,0.84667 1.721556,1.80622 0.874888,0.95956 1.580444,1.89089 0.705555,0.90311 1.157111,1.69333 0.451556,0.762 0.451556,1.21356 0,0.254 -0.282223,0.31044 -0.395111,-0.73377 -0.846666,-1.41111 -0.423334,-0.62089 -0.874889,-1.21355 0.423333,0.59266 0.790222,1.21355 0.395111,0.67734 0.762,1.41111 l -0.451556,0.254 0.366889,0.59267 q 0,0.31044 -0.08467,0.62089 -0.08467,0.28222 -0.479778,0.28222 -0.254,0 -0.479778,-0.11289 -0.197555,-0.11289 -0.423333,-0.254 z m -4.769556,-9.42622 q 0.762,0.79022 1.524,1.55222 0.762,0.762 1.495778,1.58045 -0.620889,-1.04422 -1.439333,-1.69334 -0.790222,-0.67733 -1.580445,-1.43933 z m -5.813777,7.22489 q 0.169333,-0.31045 0.395111,-0.762 0.282222,-0.53622 0.564444,-1.07245 0.282223,-0.56444 0.536223,-1.04422 0.197555,-0.39511 0.338666,-0.62089 -1.044222,1.72156 -1.834444,3.49956 z m 0.592666,-5.81378 q -0.395111,0.64911 -0.733777,1.32645 -0.310445,0.67733 -0.620889,1.38288 z m -0.395111,-2.25778 -0.08467,0.16934 0.451555,0.31044 0.08467,-0.22578 z m -0.225777,8.128 v 0.0282 z"
         style="font-style:normal;font-variant:normal;font-weight:normal;font-stretch:normal;font-size:28.22222137px;line-height:2.25;font-family:'Finger Paint';-inkscape-font-specification:'Finger Paint, Normal';font-variant-ligatures:normal;font-variant-caps:normal;font-variant-numeric:normal;font-feature-settings:normal;text-align:start;writing-mode:lr-tb;text-anchor:start;fill:#ff0000;stroke-width:0.26458332"
         id="path4638-0-0-1" />
    </g>
    <g
       aria-label="o"
       style="font-style:normal;font-weight:normal;font-size:7.05555534px;line-height:1.25;font-family:sans-serif;letter-spacing:0px;word-spacing:0px;fill:#6d6b6b;fill-opacity:1;stroke:none;stroke-width:0.26458332"
       id="text4716"
       transform="matrix(1.1228543,0,0,0.98118576,12.185877,24.688453)">
      <path
         d="m -40.188927,219.93289 q 0.03175,0.15875 0.34925,0.15875 h 0.0635 q 0.1905,0 0.254,0.0317 1.651,0.508 3.27025,1.49225 1.651,0.9525 2.95275,2.31775 1.3335,1.3335 2.12725,3.048 0.8255,1.7145 0.8255,3.683 0,1.7145 -0.66675,3.302 -0.66675,1.5875 -1.8415,2.76225 1.2065,-1.04775 1.905,-2.6035 0.73025,-1.5875 0.73025,-3.39725 0,-2.032 -0.85725,-3.77825 -0.85725,-1.778 -2.19075,-3.175 -1.3335,-1.397 -2.9845,-2.38125 -1.61925,-1.016 -3.175,-1.55575 1.2065,0 2.44475,0.53975 1.27,0.53975 2.413,1.42875 1.143,0.85725 2.0955,2.00025 0.98425,1.11125 1.651,2.286 l -0.22225,0.3175 q 0.635,0.9525 0.9525,2.06375 0.34925,1.11125 0.34925,2.286 0,2.25425 -0.98425,3.96875 -0.9525,1.68275 -2.44475,2.82575 -1.4605,1.11125 -3.2385,1.68275 -1.74625,0.5715 -3.302,0.5715 -0.889,0 -1.80975,-0.1905 -0.889,-0.1905 -1.80975,-0.635 v 0.1905 q 0.889,0.508 1.80975,0.6985 0.9525,0.1905 1.87325,0.1905 2.286,0 4.47675,-1.016 2.2225,-0.98425 3.7465,-2.794 -1.4605,1.87325 -3.65125,2.921 -2.159,1.04775 -4.5085,1.04775 -2.413,0 -3.90525,-0.9525 -1.49225,-0.92075 -2.3495,-2.286 -0.8255,-1.36525 -1.11125,-2.88925 -0.28575,-1.524 -0.28575,-2.7305 0,-1.61925 0.41275,-3.175 0.4445,-1.55575 1.3335,-2.8575 0.889,-1.30175 2.286,-2.2225 1.397,-0.9525 3.3655,-1.3335 l -0.92075,-0.22225 q -0.66675,-0.15875 -0.9525,-0.381 -0.28575,-0.22225 -0.28575,-0.381 0,-0.254 0.53975,-0.53975 0.5715,-0.3175 1.27,-0.3175 z m -1.42875,4.0005 q 0.85725,-0.3175 1.651,-0.3175 0.79375,0 1.2065,0.254 0.4445,0.22225 0.4445,0.47625 0,0.15875 -0.381,0.34925 -0.34925,0.1905 -0.92075,0.53975 -0.53975,0.3175 -1.2065,0.8255 -0.635,0.508 -1.2065,1.30175 -0.53975,0.762 -0.92075,1.87325 -0.34925,1.11125 -0.34925,2.6035 0,2.19075 0.98425,3.302 0.98425,1.11125 2.7305,1.11125 1.11125,0 2.25425,-0.381 1.17475,-0.381 2.0955,-1.0795 0.9525,-0.6985 1.524,-1.7145 0.60325,-1.016 0.60325,-2.286 0,-0.9525 -0.34925,-1.905 -0.3175,-0.9525 -0.92075,-1.80975 -0.5715,-0.889 -1.397,-1.651 -0.79375,-0.762 -1.74625,-1.30175 -0.92075,-0.508 -1.524,-0.762 -0.5715,-0.28575 -0.8255,-0.53975 -0.254,0.127 -0.73025,0.3175 -0.4445,0.15875 -1.2065,0.508 z m 2.12725,-1.49225 q 1.4605,0.47625 2.794,1.42875 1.143,0.85725 2.0955,1.87325 -0.92075,-1.0795 -2.00025,-1.93675 -1.23825,-1.016 -2.76225,-1.5875 z m 6.1595,10.82675 q -0.47625,1.016 -1.3335,1.80975 0.5715,-0.381 0.9525,-0.92075 0.41275,-0.53975 0.66675,-1.0795 0.254,-0.53975 0.381,-0.98425 0.09525,-0.41275 0.15875,-0.66675 -0.34925,0.8255 -0.8255,1.8415 z m 2.12725,2.7305 q -0.03175,0.0635 -0.09525,0.127 -0.03175,0.0317 -0.0635,0.0317 -0.03175,0 0.15875,-0.3175 0.1905,-0.34925 0.4445,-0.79375 0.28575,-0.47625 0.53975,-0.98425 0.22225,-0.381 0.3175,-0.66675 -0.4445,1.36525 -1.30175,2.6035 z m 1.778,-5.1435 q 0,0.508 -0.0635,1.016 -0.0635,0.47625 -0.22225,0.889 0.22225,-0.79375 0.22225,-1.778 0,-0.73025 -0.127,-1.42875 -0.09525,-0.60325 -0.254,-1.17475 0.15875,0.5715 0.28575,1.143 0.15875,0.635 0.15875,1.3335 z m -10.06475,-8.92175 -0.28575,-0.127 q -0.03175,0.0635 -0.09525,0.127 -0.0635,0.0635 -0.0635,0.127 0,0.0635 0.0635,0.1905 0.09525,0.0952 0.15875,0.15875 z m 5.08,4.03225 q -0.09525,-0.127 -0.1905,-0.22225 0.09525,0.127 0.1905,0.22225 z m 4.5085,7.4295 q 0.03175,-0.0635 0.03175,-0.127 0,0.0635 -0.03175,0.127 z m 0.0635,-0.1905 q -0.03175,0.0318 -0.03175,0.0635 0,-0.0317 0.03175,-0.0635 z"
         style="font-style:normal;font-variant:normal;font-weight:normal;font-stretch:normal;font-size:31.75px;font-family:'Finger Paint';-inkscape-font-specification:'Finger Paint, Normal';font-variant-ligatures:normal;font-variant-caps:normal;font-variant-numeric:normal;font-feature-settings:normal;text-align:start;writing-mode:lr-tb;text-anchor:start;fill:#6d6b6b;fill-opacity:1;stroke-width:0.26458332"
         id="path4718"
         inkscape:connector-curvature="0" />
    </g>
    <g
       aria-label="o"
       style="font-style:normal;font-weight:normal;font-size:7.05555534px;line-height:1.25;font-family:sans-serif;letter-spacing:0px;word-spacing:0px;fill:#0000ff;fill-opacity:1;stroke:none;stroke-width:0.26458332"
       id="text4716-3"
       transform="matrix(1.1228543,0,0,0.98118575,88.040748,56.29849)">
      <path
         d="m -40.188927,219.93289 q 0.03175,0.15875 0.34925,0.15875 h 0.0635 q 0.1905,0 0.254,0.0317 1.651,0.508 3.27025,1.49225 1.651,0.9525 2.95275,2.31775 1.3335,1.3335 2.12725,3.048 0.8255,1.7145 0.8255,3.683 0,1.7145 -0.66675,3.302 -0.66675,1.5875 -1.8415,2.76225 1.2065,-1.04775 1.905,-2.6035 0.73025,-1.5875 0.73025,-3.39725 0,-2.032 -0.85725,-3.77825 -0.85725,-1.778 -2.19075,-3.175 -1.3335,-1.397 -2.9845,-2.38125 -1.61925,-1.016 -3.175,-1.55575 1.2065,0 2.44475,0.53975 1.27,0.53975 2.413,1.42875 1.143,0.85725 2.0955,2.00025 0.98425,1.11125 1.651,2.286 l -0.22225,0.3175 q 0.635,0.9525 0.9525,2.06375 0.34925,1.11125 0.34925,2.286 0,2.25425 -0.98425,3.96875 -0.9525,1.68275 -2.44475,2.82575 -1.4605,1.11125 -3.2385,1.68275 -1.74625,0.5715 -3.302,0.5715 -0.889,0 -1.80975,-0.1905 -0.889,-0.1905 -1.80975,-0.635 v 0.1905 q 0.889,0.508 1.80975,0.6985 0.9525,0.1905 1.87325,0.1905 2.286,0 4.47675,-1.016 2.2225,-0.98425 3.7465,-2.794 -1.4605,1.87325 -3.65125,2.921 -2.159,1.04775 -4.5085,1.04775 -2.413,0 -3.90525,-0.9525 -1.49225,-0.92075 -2.3495,-2.286 -0.8255,-1.36525 -1.11125,-2.88925 -0.28575,-1.524 -0.28575,-2.7305 0,-1.61925 0.41275,-3.175 0.4445,-1.55575 1.3335,-2.8575 0.889,-1.30175 2.286,-2.2225 1.397,-0.9525 3.3655,-1.3335 l -0.92075,-0.22225 q -0.66675,-0.15875 -0.9525,-0.381 -0.28575,-0.22225 -0.28575,-0.381 0,-0.254 0.53975,-0.53975 0.5715,-0.3175 1.27,-0.3175 z m -1.42875,4.0005 q 0.85725,-0.3175 1.651,-0.3175 0.79375,0 1.2065,0.254 0.4445,0.22225 0.4445,0.47625 0,0.15875 -0.381,0.34925 -0.34925,0.1905 -0.92075,0.53975 -0.53975,0.3175 -1.2065,0.8255 -0.635,0.508 -1.2065,1.30175 -0.53975,0.762 -0.92075,1.87325 -0.34925,1.11125 -0.34925,2.6035 0,2.19075 0.98425,3.302 0.98425,1.11125 2.7305,1.11125 1.11125,0 2.25425,-0.381 1.17475,-0.381 2.0955,-1.0795 0.9525,-0.6985 1.524,-1.7145 0.60325,-1.016 0.60325,-2.286 0,-0.9525 -0.34925,-1.905 -0.3175,-0.9525 -0.92075,-1.80975 -0.5715,-0.889 -1.397,-1.651 -0.79375,-0.762 -1.74625,-1.30175 -0.92075,-0.508 -1.524,-0.762 -0.5715,-0.28575 -0.8255,-0.53975 -0.254,0.127 -0.73025,0.3175 -0.4445,0.15875 -1.2065,0.508 z m 2.12725,-1.49225 q 1.4605,0.47625 2.794,1.42875 1.143,0.85725 2.0955,1.87325 -0.92075,-1.0795 -2.00025,-1.93675 -1.23825,-1.016 -2.76225,-1.5875 z m 6.1595,10.82675 q -0.47625,1.016 -1.3335,1.80975 0.5715,-0.381 0.9525,-0.92075 0.41275,-0.53975 0.66675,-1.0795 0.254,-0.53975 0.381,-0.98425 0.09525,-0.41275 0.15875,-0.66675 -0.34925,0.8255 -0.8255,1.8415 z m 2.12725,2.7305 q -0.03175,0.0635 -0.09525,0.127 -0.03175,0.0317 -0.0635,0.0317 -0.03175,0 0.15875,-0.3175 0.1905,-0.34925 0.4445,-0.79375 0.28575,-0.47625 0.53975,-0.98425 0.22225,-0.381 0.3175,-0.66675 -0.4445,1.36525 -1.30175,2.6035 z m 1.778,-5.1435 q 0,0.508 -0.0635,1.016 -0.0635,0.47625 -0.22225,0.889 0.22225,-0.79375 0.22225,-1.778 0,-0.73025 -0.127,-1.42875 -0.09525,-0.60325 -0.254,-1.17475 0.15875,0.5715 0.28575,1.143 0.15875,0.635 0.15875,1.3335 z m -10.06475,-8.92175 -0.28575,-0.127 q -0.03175,0.0635 -0.09525,0.127 -0.0635,0.0635 -0.0635,0.127 0,0.0635 0.0635,0.1905 0.09525,0.0952 0.15875,0.15875 z m 5.08,4.03225 q -0.09525,-0.127 -0.1905,-0.22225 0.09525,0.127 0.1905,0.22225 z m 4.5085,7.4295 q 0.03175,-0.0635 0.03175,-0.127 0,0.0635 -0.03175,0.127 z m 0.0635,-0.1905 q -0.03175,0.0318 -0.03175,0.0635 0,-0.0317 0.03175,-0.0635 z"
         style="font-style:normal;font-variant:normal;font-weight:normal;font-stretch:normal;font-size:31.75px;font-family:'Finger Paint';-inkscape-font-specification:'Finger Paint, Normal';font-variant-ligatures:normal;font-variant-caps:normal;font-variant-numeric:normal;font-feature-settings:normal;text-align:start;writing-mode:lr-tb;text-anchor:start;fill:#0000ff;fill-opacity:1;stroke-width:0.26458332"
         id="path4718-3"
         inkscape:connector-curvature="0" />
    </g>
    <g
       aria-label="o"
       style="font-style:normal;font-weight:normal;font-size:7.05555534px;line-height:1.25;font-family:sans-serif;letter-spacing:0px;word-spacing:0px;fill:#0000ff;fill-opacity:1;stroke:none;stroke-width:0.26458332"
       id="text4716-3-3"
       transform="matrix(1.1228543,0,0,0.98118575,118.04075,56.29849)">
      <path
         d="m -40.188927,219.93289 q 0.03175,0.15875 0.34925,0.15875 h 0.0635 q 0.1905,0 0.254,0.0317 1.651,0.508 3.27025,1.49225 1.651,0.9525 2.95275,2.31775 1.3335,1.3335 2.12725,3.048 0.8255,1.7145 0.8255,3.683 0,1.7145 -0.66675,3.302 -0.66675,1.5875 -1.8415,2.76225 1.2065,-1.04775 1.905,-2.6035 0.73025,-1.5875 0.73025,-3.39725 0,-2.032 -0.85725,-3.77825 -0.85725,-1.778 -2.19075,-3.175 -1.3335,-1.397 -2.9845,-2.38125 -1.61925,-1.016 -3.175,-1.55575 1.2065,0 2.44475,0.53975 1.27,0.53975 2.413,1.42875 1.143,0.85725 2.0955,2.00025 0.98425,1.11125 1.651,2.286 l -0.22225,0.3175 q 0.635,0.9525 0.9525,2.06375 0.34925,1.11125 0.34925,2.286 0,2.25425 -0.98425,3.96875 -0.9525,1.68275 -2.44475,2.82575 -1.4605,1.11125 -3.2385,1.68275 -1.74625,0.5715 -3.302,0.5715 -0.889,0 -1.80975,-0.1905 -0.889,-0.1905 -1.80975,-0.635 v 0.1905 q 0.889,0.508 1.80975,0.6985 0.9525,0.1905 1.87325,0.1905 2.286,0 4.47675,-1.016 2.2225,-0.98425 3.7465,-2.794 -1.4605,1.87325 -3.65125,2.921 -2.159,1.04775 -4.5085,1.04775 -2.413,0 -3.90525,-0.9525 -1.49225,-0.92075 -2.3495,-2.286 -0.8255,-1.36525 -1.11125,-2.88925 -0.28575,-1.524 -0.28575,-2.7305 0,-1.61925 0.41275,-3.175 0.4445,-1.55575 1.3335,-2.8575 0.889,-1.30175 2.286,-2.2225 1.397,-0.9525 3.3655,-1.3335 l -0.92075,-0.22225 q -0.66675,-0.15875 -0.9525,-0.381 -0.28575,-0.22225 -0.28575,-0.381 0,-0.254 0.53975,-0.53975 0.5715,-0.3175 1.27,-0.3175 z m -1.42875,4.0005 q 0.85725,-0.3175 1.651,-0.3175 0.79375,0 1.2065,0.254 0.4445,0.22225 0.4445,0.47625 0,0.15875 -0.381,0.34925 -0.34925,0.1905 -0.92075,0.53975 -0.53975,0.3175 -1.2065,0.8255 -0.635,0.508 -1.2065,1.30175 -0.53975,0.762 -0.92075,1.87325 -0.34925,1.11125 -0.34925,2.6035 0,2.19075 0.98425,3.302 0.98425,1.11125 2.7305,1.11125 1.11125,0 2.25425,-0.381 1.17475,-0.381 2.0955,-1.0795 0.9525,-0.6985 1.524,-1.7145 0.60325,-1.016 0.60325,-2.286 0,-0.9525 -0.34925,-1.905 -0.3175,-0.9525 -0.92075,-1.80975 -0.5715,-0.889 -1.397,-1.651 -0.79375,-0.762 -1.74625,-1.30175 -0.92075,-0.508 -1.524,-0.762 -0.5715,-0.28575 -0.8255,-0.53975 -0.254,0.127 -0.73025,0.3175 -0.4445,0.15875 -1.2065,0.508 z m 2.12725,-1.49225 q 1.4605,0.47625 2.794,1.42875 1.143,0.85725 2.0955,1.87325 -0.92075,-1.0795 -2.00025,-1.93675 -1.23825,-1.016 -2.76225,-1.5875 z m 6.1595,10.82675 q -0.47625,1.016 -1.3335,1.80975 0.5715,-0.381 0.9525,-0.92075 0.41275,-0.53975 0.66675,-1.0795 0.254,-0.53975 0.381,-0.98425 0.09525,-0.41275 0.15875,-0.66675 -0.34925,0.8255 -0.8255,1.8415 z m 2.12725,2.7305 q -0.03175,0.0635 -0.09525,0.127 -0.03175,0.0317 -0.0635,0.0317 -0.03175,0 0.15875,-0.3175 0.1905,-0.34925 0.4445,-0.79375 0.28575,-0.47625 0.53975,-0.98425 0.22225,-0.381 0.3175,-0.66675 -0.4445,1.36525 -1.30175,2.6035 z m 1.778,-5.1435 q 0,0.508 -0.0635,1.016 -0.0635,0.47625 -0.22225,0.889 0.22225,-0.79375 0.22225,-1.778 0,-0.73025 -0.127,-1.42875 -0.09525,-0.60325 -0.254,-1.17475 0.15875,0.5715 0.28575,1.143 0.15875,0.635 0.15875,1.3335 z m -10.06475,-8.92175 -0.28575,-0.127 q -0.03175,0.0635 -0.09525,0.127 -0.0635,0.0635 -0.0635,0.127 0,0.0635 0.0635,0.1905 0.09525,0.0952 0.15875,0.15875 z m 5.08,4.03225 q -0.09525,-0.127 -0.1905,-0.22225 0.09525,0.127 0.1905,0.22225 z m 4.5085,7.4295 q 0.03175,-0.0635 0.03175,-0.127 0,0.0635 -0.03175,0.127 z m 0.0635,-0.1905 q -0.03175,0.0318 -0.03175,0.0635 0,-0.0317 0.03175,-0.0635 z"
         style="font-style:normal;font-variant:normal;font-weight:normal;font-stretch:normal;font-size:31.75px;font-family:'Finger Paint';-inkscape-font-specification:'Finger Paint, Normal';font-variant-ligatures:normal;font-variant-caps:normal;font-variant-numeric:normal;font-feature-settings:normal;text-align:start;writing-mode:lr-tb;text-anchor:start;fill:#0000ff;fill-opacity:1;stroke-width:0.26458332"
         id="path4718-3-7"
         inkscape:connector-curvature="0" />
    </g>
  </g>
</svg>
