<?xml version="1.0" encoding="UTF-8" standalone="no"?>
<!-- Created with Inkscape (http://www.inkscape.org/) -->

<svg
   xmlns:dc="http://purl.org/dc/elements/1.1/"
   xmlns:cc="http://creativecommons.org/ns#"
   xmlns:rdf="http://www.w3.org/1999/02/22-rdf-syntax-ns#"
   xmlns:svg="http://www.w3.org/2000/svg"
   xmlns="http://www.w3.org/2000/svg"
   xmlns:sodipodi="http://sodipodi.sourceforge.net/DTD/sodipodi-0.dtd"
   xmlns:inkscape="http://www.inkscape.org/namespaces/inkscape"
   width="250"
   height="250"
   viewBox="0 0 66.145835 66.145835"
   version="1.1"
   id="svg8"
   inkscape:version="0.92.3 (2405546, 2018-03-11)"
   sodipodi:docname="0_icon.svg"
   inkscape:export-filename="/home/ashwek/AndroidStudioProjects/XO/media/logo.png"
   inkscape:export-xdpi="144.54698"
   inkscape:export-ydpi="144.54698">
  <defs
     id="defs2" />
  <sodipodi:namedview
     id="base"
     pagecolor="#ffffff"
     bordercolor="#666666"
     borderopacity="1.0"
     inkscape:pageopacity="1"
     inkscape:pageshadow="2"
     inkscape:zoom="0.7328125"
     inkscape:cx="110.34651"
     inkscape:cy="66.940946"
     inkscape:document-units="px"
     inkscape:current-layer="text4716"
     showgrid="false"
     inkscape:window-width="1366"
     inkscape:window-height="704"
     inkscape:window-x="0"
     inkscape:window-y="27"
     inkscape:window-maximized="1"
     units="px" />
  <metadata
     id="metadata5">
    <rdf:RDF>
      <cc:Work
         rdf:about="">
        <dc:format>image/svg+xml</dc:format>
        <dc:type
           rdf:resource="http://purl.org/dc/dcmitype/StillImage" />
        <dc:title></dc:title>
      </cc:Work>
    </rdf:RDF>
  </metadata>
  <g
     inkscape:label="Layer 1"
     inkscape:groupmode="layer"
     id="layer1"
     transform="translate(0,-230.85416)">
    <g
       transform="matrix(2.6595745,0,0,2.4933419,-87.576133,-365.21256)"
       aria-label="X"
       style="font-style:normal;font-weight:normal;font-size:7.05555534px;line-height:1.25;font-family:sans-serif;letter-spacing:0px;word-spacing:0px;fill:#000000;fill-opacity:1;stroke:none;stroke-width:0.26458332"
       id="text109-8-4" />
    <g
       aria-label="o"
       style="font-style:normal;font-weight:normal;font-size:7.05555534px;line-height:1.25;font-family:sans-serif;letter-spacing:0px;word-spacing:0px;fill:#6d6b6b;fill-opacity:1;stroke:none;stroke-width:0.26458332"
       id="text4716"
       transform="matrix(2.9708854,0,0,2.5960541,146.95157,-333.24153)">
      <path
         d="m -40.188927,219.93289 q 0.03175,0.15875 0.34925,0.15875 h 0.0635 q 0.1905,0 0.254,0.0317 1.651,0.508 3.27025,1.49225 1.651,0.9525 2.95275,2.31775 1.3335,1.3335 2.12725,3.048 0.8255,1.7145 0.8255,3.683 0,1.7145 -0.66675,3.302 -0.66675,1.5875 -1.8415,2.76225 1.2065,-1.04775 1.905,-2.6035 0.73025,-1.5875 0.73025,-3.39725 0,-2.032 -0.85725,-3.77825 -0.85725,-1.778 -2.19075,-3.175 -1.3335,-1.397 -2.9845,-2.38125 -1.61925,-1.016 -3.175,-1.55575 1.2065,0 2.44475,0.53975 1.27,0.53975 2.413,1.42875 1.143,0.85725 2.0955,2.00025 0.98425,1.11125 1.651,2.286 l -0.22225,0.3175 q 0.635,0.9525 0.9525,2.06375 0.34925,1.11125 0.34925,2.286 0,2.25425 -0.98425,3.96875 -0.9525,1.68275 -2.44475,2.82575 -1.4605,1.11125 -3.2385,1.68275 -1.74625,0.5715 -3.302,0.5715 -0.889,0 -1.80975,-0.1905 -0.889,-0.1905 -1.80975,-0.635 v 0.1905 q 0.889,0.508 1.80975,0.6985 0.9525,0.1905 1.87325,0.1905 2.286,0 4.47675,-1.016 2.2225,-0.98425 3.7465,-2.794 -1.4605,1.87325 -3.65125,2.921 -2.159,1.04775 -4.5085,1.04775 -2.413,0 -3.90525,-0.9525 -1.49225,-0.92075 -2.3495,-2.286 -0.8255,-1.36525 -1.11125,-2.88925 -0.28575,-1.524 -0.28575,-2.7305 0,-1.61925 0.41275,-3.175 0.4445,-1.55575 1.3335,-2.8575 0.889,-1.30175 2.286,-2.2225 1.397,-0.9525 3.3655,-1.3335 l -0.92075,-0.22225 q -0.66675,-0.15875 -0.9525,-0.381 -0.28575,-0.22225 -0.28575,-0.381 0,-0.254 0.53975,-0.53975 0.5715,-0.3175 1.27,-0.3175 z m -1.42875,4.0005 q 0.85725,-0.3175 1.651,-0.3175 0.79375,0 1.2065,0.254 0.4445,0.22225 0.4445,0.47625 0,0.15875 -0.381,0.34925 -0.34925,0.1905 -0.92075,0.53975 -0.53975,0.3175 -1.2065,0.8255 -0.635,0.508 -1.2065,1.30175 -0.53975,0.762 -0.92075,1.87325 -0.34925,1.11125 -0.34925,2.6035 0,2.19075 0.98425,3.302 0.98425,1.11125 2.7305,1.11125 1.11125,0 2.25425,-0.381 1.17475,-0.381 2.0955,-1.0795 0.9525,-0.6985 1.524,-1.7145 0.60325,-1.016 0.60325,-2.286 0,-0.9525 -0.34925,-1.905 -0.3175,-0.9525 -0.92075,-1.80975 -0.5715,-0.889 -1.397,-1.651 -0.79375,-0.762 -1.74625,-1.30175 -0.92075,-0.508 -1.524,-0.762 -0.5715,-0.28575 -0.8255,-0.53975 -0.254,0.127 -0.73025,0.3175 -0.4445,0.15875 -1.2065,0.508 z m 2.12725,-1.49225 q 1.4605,0.47625 2.794,1.42875 1.143,0.85725 2.0955,1.87325 -0.92075,-1.0795 -2.00025,-1.93675 -1.23825,-1.016 -2.76225,-1.5875 z m 6.1595,10.82675 q -0.47625,1.016 -1.3335,1.80975 0.5715,-0.381 0.9525,-0.92075 0.41275,-0.53975 0.66675,-1.0795 0.254,-0.53975 0.381,-0.98425 0.09525,-0.41275 0.15875,-0.66675 -0.34925,0.8255 -0.8255,1.8415 z m 2.12725,2.7305 q -0.03175,0.0635 -0.09525,0.127 -0.03175,0.0317 -0.0635,0.0317 -0.03175,0 0.15875,-0.3175 0.1905,-0.34925 0.4445,-0.79375 0.28575,-0.47625 0.53975,-0.98425 0.22225,-0.381 0.3175,-0.66675 -0.4445,1.36525 -1.30175,2.6035 z m 1.778,-5.1435 q 0,0.508 -0.0635,1.016 -0.0635,0.47625 -0.22225,0.889 0.22225,-0.79375 0.22225,-1.778 0,-0.73025 -0.127,-1.42875 -0.09525,-0.60325 -0.254,-1.17475 0.15875,0.5715 0.28575,1.143 0.15875,0.635 0.15875,1.3335 z m -10.06475,-8.92175 -0.28575,-0.127 q -0.03175,0.0635 -0.09525,0.127 -0.0635,0.0635 -0.0635,0.127 0,0.0635 0.0635,0.1905 0.09525,0.0952 0.15875,0.15875 z m 5.08,4.03225 q -0.09525,-0.127 -0.1905,-0.22225 0.09525,0.127 0.1905,0.22225 z m 4.5085,7.4295 q 0.03175,-0.0635 0.03175,-0.127 0,0.0635 -0.03175,0.127 z m 0.0635,-0.1905 q -0.03175,0.0318 -0.03175,0.0635 0,-0.0317 0.03175,-0.0635 z"
         style="font-style:normal;font-variant:normal;font-weight:normal;font-stretch:normal;font-size:31.75px;font-family:'Finger Paint';-inkscape-font-specification:'Finger Paint, Normal';font-variant-ligatures:normal;font-variant-caps:normal;font-variant-numeric:normal;font-feature-settings:normal;text-align:start;writing-mode:lr-tb;text-anchor:start;fill:#6d6b6b;fill-opacity:1;stroke-width:0.26458332"
         id="path4718"
         inkscape:connector-curvature="0" />
    </g>
  </g>
</svg>
